<svg width="17" height="17" viewBox="0 0 17 17" fill="none" xmlns="http://www.w3.org/2000/svg">
<path d="M4.6489 8.73809L4.7204 8.7998C4.96997 8.98501 5.32413 8.96444 5.55046 8.73809L7.86192 6.42666L7.86217 12.1129L7.86803 12.1995C7.91019 12.5106 8.17692 12.7504 8.49967 12.7504L8.5862 12.7446C8.89738 12.7024 9.13717 12.4357 9.13717 12.1129L9.13691 6.42496L11.4495 8.7386L11.521 8.80039C11.7706 8.98561 12.1247 8.96504 12.3511 8.73877C12.6001 8.48989 12.6002 8.08622 12.3513 7.83725L8.95127 4.43592L8.8797 4.37418C8.63014 4.18894 8.27595 4.20948 8.04959 4.43584L4.6489 7.83657L4.58717 7.90806C4.402 8.15762 4.42257 8.51173 4.6489 8.73809ZM17 8.5C17 3.80558 13.1944 0 8.50001 0C3.80557 0 0 3.80558 0 8.5C0 13.1944 3.80557 17 8.50001 17C13.1944 17 17 13.1944 17 8.5ZM1.275 8.5C1.275 4.50974 4.50974 1.275 8.50001 1.275C12.4902 1.275 15.725 4.50974 15.725 8.5C15.725 12.4902 12.4902 15.725 8.50001 15.725C4.50974 15.725 1.275 12.4902 1.275 8.5Z" fill="#2AC1C1"/>
</svg>
