<svg width="13" height="13" viewBox="0 0 13 13" fill="none" xmlns="http://www.w3.org/2000/svg">
<path d="M6.50005 2.88892C6.7992 2.88892 7.04172 3.10943 7.04172 3.38144V7.4858C7.04172 7.7578 6.7992 7.97832 6.50005 7.97832C6.20091 7.97832 5.95839 7.7578 5.95839 7.4858V3.38144C5.95839 3.10943 6.20091 2.88892 6.50005 2.88892ZM6.50005 10.1111C6.89894 10.1111 7.22228 9.81714 7.22228 9.45444C7.22228 9.09175 6.89894 8.79775 6.50005 8.79775C6.10117 8.79775 5.77783 9.09175 5.77783 9.45444C5.77783 9.81714 6.10117 10.1111 6.50005 10.1111Z" fill="#FF2626"/>
<path fill-rule="evenodd" clip-rule="evenodd" d="M13 6.5C13 2.91018 10.0898 7.90669e-07 6.50002 0V0.975C9.55138 0.975001 12.025 3.44864 12.025 6.5C12.025 9.55136 9.55138 12.025 6.50002 12.025V13C10.0898 13 13 10.0898 13 6.5ZM6.5 1.43051e-06C2.91018 1.11668e-06 3.13832e-07 2.91018 0 6.5H0.975C0.975001 3.44864 3.44864 0.975001 6.5 0.975001V1.43051e-06ZM3.8147e-06 6.5C3.65778e-06 10.0898 2.91018 13 6.50001 13V12.025C3.44864 12.025 0.975004 9.55136 0.975004 6.5H3.8147e-06Z" fill="#FF2626"/>
</svg>
