<svg width="22" height="22" viewBox="0 0 22 22" fill="none" xmlns="http://www.w3.org/2000/svg">
<path d="M11 0C17.0751 0 22 4.92445 22 10.9991C22 17.0736 17.0751 21.9981 11 21.9981C9.21987 21.9981 7.4996 21.5742 5.95415 20.775L1.74574 21.949C1.01433 22.1532 0.255838 21.7259 0.0516011 20.9946C-0.0159939 20.7526 -0.0159609 20.4967 0.0516451 20.2549L1.22607 16.0501C0.425007 14.5034 0 12.7813 0 10.9991C0 4.92445 4.92486 0 11 0ZM11 1.64986C5.83614 1.64986 1.65 5.83565 1.65 10.9991C1.65 12.6155 2.06005 14.1705 2.83033 15.5499L2.99605 15.8466L1.77206 20.2288L6.15731 19.0055L6.4538 19.1708C7.83207 19.9392 9.38542 20.3483 11 20.3483C16.1638 20.3483 20.35 16.1625 20.35 10.9991C20.35 5.83565 16.1638 1.64986 11 1.64986ZM7.425 12.099H12.3731C12.8288 12.099 13.1981 12.4683 13.1981 12.9239C13.1981 13.3415 12.8877 13.6867 12.485 13.7414L12.3731 13.7488H7.425C6.96937 13.7488 6.6 13.3795 6.6 12.9239C6.6 12.5063 6.91036 12.1611 7.31305 12.1065L7.425 12.099ZM7.425 8.2493H14.58C15.0356 8.2493 15.4049 8.61864 15.4049 9.07423C15.4049 9.49187 15.0945 9.83702 14.6919 9.89169L14.58 9.89916H7.425C6.96937 9.89916 6.6 9.52982 6.6 9.07423C6.6 8.6566 6.91036 8.31146 7.31305 8.25684L7.425 8.2493Z" fill="#2AC1C1"/>
</svg>
