<svg width="64" height="64" viewBox="0 0 64 64" fill="none" xmlns="http://www.w3.org/2000/svg">
<circle cx="32" cy="32" r="32" fill="#E6E6E6"/>
<path d="M43.3617 36.1947C45.9234 36.1947 48 38.3093 48 40.9182V42.8472C48 44.0516 47.6304 45.2257 46.9427 46.2055C43.7544 50.749 38.5479 53 31.4933 53C24.4373 53 19.2335 50.7482 16.0527 46.2021C15.368 45.2236 15 44.052 15 42.8504V40.9182C15 38.3093 17.0767 36.1947 19.6384 36.1947H43.3617ZM31.4933 11C37.1889 11 41.8061 15.7019 41.8061 21.5019C41.8061 27.3019 37.1889 32.0038 31.4933 32.0038C25.7976 32.0038 21.1804 27.3019 21.1804 21.5019C21.1804 15.7019 25.7976 11 31.4933 11Z" fill="#C9C9C9"/>
</svg>
