<svg width="22" height="30" viewBox="0 0 20 28" fill="none" xmlns="http://www.w3.org/2000/svg">
<path d="M10.3269 5.09889L11.6306 7.69242L14.5504 8.10589C14.8494 8.14822 14.969 8.50832 14.7526 8.71494L12.6407 10.7314L13.1393 13.5808C13.1903 13.8725 12.8777 14.095 12.6104 13.9569L10.0001 12.6097L7.38971 13.9569C7.12237 14.095 6.80963 13.8724 6.86094 13.5805L7.362 10.7314L5.2477 8.71508C5.0311 8.50853 5.15056 8.14824 5.44969 8.10589L8.36957 7.69242L9.67329 5.09889C9.80686 4.8332 10.1934 4.8332 10.3269 5.09889ZM20 9.79926C20 4.38728 15.5229 0 10 0C4.47716 0 0 4.38728 0 9.79926C0 12.4689 1.08937 14.8891 2.85624 16.6564L2.85829 26.9482L2.8682 27.0945C2.97249 27.8541 3.87856 28.2676 4.54664 27.8067L9.99871 24.0442L15.4536 27.8068L15.5814 27.8831C16.2751 28.2367 17.1417 27.7488 17.1417 26.9482L17.1437 16.6564C18.9106 14.8891 20 12.4689 20 9.79926ZM14.9991 18.2881L14.9989 24.9252L10.6151 21.9016L10.4711 21.8178C10.1237 21.6503 9.70529 21.6783 9.38157 21.9018L5.00114 24.9247L5.00083 18.2881C6.47151 19.1214 8.17886 19.5985 10 19.5985C11.8211 19.5985 13.5284 19.1214 14.9991 18.2881ZM2.14286 9.79926C2.14286 5.54698 5.66061 2.09984 10 2.09984C14.3394 2.09984 17.8571 5.54698 17.8571 9.79926C17.8571 14.0516 14.3394 17.4987 10 17.4987C5.66061 17.4987 2.14286 14.0516 2.14286 9.79926Z" fill="#2AC1C1"/>
</svg>
