<svg width="20" height="26" viewBox="0 0 20 26" fill="none" xmlns="http://www.w3.org/2000/svg">
<path d="M3.75 13.325C3.75 12.7865 4.16974 12.35 4.6875 12.35C5.20526 12.35 5.625 12.7865 5.625 13.325C5.625 13.8635 5.20526 14.3 4.6875 14.3C4.16974 14.3 3.75 13.8635 3.75 13.325ZM4.6875 16.25C4.16974 16.25 3.75 16.6865 3.75 17.225C3.75 17.7635 4.16974 18.2 4.6875 18.2C5.20526 18.2 5.625 17.7635 5.625 17.225C5.625 16.6865 5.20526 16.25 4.6875 16.25ZM3.75 21.125C3.75 20.5865 4.16974 20.15 4.6875 20.15C5.20526 20.15 5.625 20.5865 5.625 21.125C5.625 21.6635 5.20526 22.1 4.6875 22.1C4.16974 22.1 3.75 21.6635 3.75 21.125ZM8.4375 12.35C7.91975 12.35 7.5 12.7865 7.5 13.325C7.5 13.8635 7.91975 14.3 8.4375 14.3H15.3125C15.8303 14.3 16.25 13.8635 16.25 13.325C16.25 12.7865 15.8303 12.35 15.3125 12.35H8.4375ZM7.5 17.225C7.5 16.6865 7.91975 16.25 8.4375 16.25H15.3125C15.8303 16.25 16.25 16.6865 16.25 17.225C16.25 17.7635 15.8303 18.2 15.3125 18.2H8.4375C7.91975 18.2 7.5 17.7635 7.5 17.225ZM8.4375 20.15C7.91975 20.15 7.5 20.5865 7.5 21.125C7.5 21.6635 7.91975 22.1 8.4375 22.1H15.3125C15.8303 22.1 16.25 21.6635 16.25 21.125C16.25 20.5865 15.8303 20.15 15.3125 20.15H8.4375ZM19.2675 8.3382L11.9813 0.7618C11.9625 0.742365 11.9414 0.725504 11.9204 0.708747C11.9047 0.696371 11.8894 0.68406 11.875 0.6708C11.7862 0.5876 11.6988 0.5057 11.6013 0.4368C11.5696 0.414622 11.5351 0.397124 11.5006 0.379691C11.4806 0.369538 11.4606 0.359411 11.4412 0.3484C11.4204 0.336167 11.3996 0.323661 11.3787 0.311129C11.311 0.270361 11.243 0.229424 11.1713 0.1976C10.925 0.0909999 10.66 0.0376999 10.3912 0.0181999C10.3666 0.0165619 10.3422 0.0131041 10.3177 0.00963306C10.2839 0.00482306 10.2499 0 10.215 0H2.5C1.12 0 0 1.1648 0 2.6V23.4C0 24.8352 1.12 26 2.5 26H17.5C18.88 26 20 24.8352 20 23.4V10.1764C20 9.4874 19.7362 8.8257 19.2675 8.3382ZM18.125 23.4C18.125 23.7575 17.845 24.05 17.5 24.05H2.5C2.155 24.05 1.875 23.7575 1.875 23.4V2.6C1.875 2.2425 2.155 1.95 2.5 1.95H10V7.8C10 9.2352 11.12 10.4 12.5 10.4H18.125V23.4ZM11.875 3.4073L16.7225 8.45H12.5C12.155 8.45 11.875 8.1575 11.875 7.8V3.4073Z" fill="#2AC1C1"/>
</svg>
