<svg width="24" height="24" viewBox="0 0 24 24" fill="none" xmlns="http://www.w3.org/2000/svg">
<path d="M12 1C18.0751 1 23 5.92445 23 11.9991C23 18.0736 18.0751 22.9981 12 22.9981C10.2199 22.9981 8.4996 22.5742 6.95415 21.775L2.74574 22.949C2.01433 23.1532 1.25584 22.7259 1.0516 21.9946C0.984006 21.7526 0.984039 21.4967 1.05165 21.2549L2.22607 17.0501C1.42501 15.5034 1 13.7813 1 11.9991C1 5.92445 5.92486 1 12 1ZM12 2.64986C6.83614 2.64986 2.65 6.83565 2.65 11.9991C2.65 13.6155 3.06005 15.1705 3.83033 16.5499L3.99605 16.8466L2.77206 21.2288L7.15731 20.0055L7.4538 20.1708C8.83207 20.9392 10.3854 21.3483 12 21.3483C17.1638 21.3483 21.35 17.1625 21.35 11.9991C21.35 6.83565 17.1638 2.64986 12 2.64986ZM8.425 13.099H13.3731C13.8288 13.099 14.1981 13.4683 14.1981 13.9239C14.1981 14.3415 13.8877 14.6867 13.485 14.7414L13.3731 14.7488H8.425C7.96937 14.7488 7.6 14.3795 7.6 13.9239C7.6 13.5063 7.91036 13.1611 8.31305 13.1065L8.425 13.099ZM8.425 9.2493H15.58C16.0356 9.2493 16.4049 9.61864 16.4049 10.0742C16.4049 10.4919 16.0945 10.837 15.6919 10.8917L15.58 10.8992H8.425C7.96937 10.8992 7.6 10.5298 7.6 10.0742C7.6 9.6566 7.91036 9.31146 8.31305 9.25684L8.425 9.2493Z" fill="#2AC1C1" stroke="#2AC1C1" stroke-width="0.5"/>
</svg>
