<svg width="13" height="11" viewBox="0 0 13 11" fill="none" xmlns="http://www.w3.org/2000/svg">
<path d="M7.03146 1.00324L6.49811 1.52644L5.96306 1.00277C4.59895 -0.332454 2.38724 -0.332454 1.02311 1.00277C-0.341035 2.33799 -0.341035 4.50281 1.02311 5.83805L6.15413 10.8603C6.34448 11.0466 6.6531 11.0466 6.84345 10.8603L11.9784 5.83709C13.3395 4.49746 13.3419 2.3387 11.9775 1.00324C10.6109 -0.334413 8.39809 -0.334413 7.03146 1.00324ZM11.2872 5.16429L6.49876 9.84829L1.71241 5.16333C0.728951 4.20072 0.728951 2.64006 1.71241 1.67746C2.69586 0.71485 4.29034 0.71485 5.2738 1.67746L6.15595 2.54093C6.34955 2.7304 6.66454 2.72671 6.8534 2.53275L7.72079 1.67793C8.70672 0.712897 10.3022 0.712897 11.2882 1.67793C12.2719 2.64076 12.2702 4.19684 11.2872 5.16429Z" fill="#0E0E0E" fill-opacity="0.5"/>
</svg>
