<svg width="45" height="45" viewBox="0 0 45 45" fill="none" xmlns="http://www.w3.org/2000/svg">
<path d="M22.5 0C34.9263 0 45 10.0736 45 22.5C45 34.9263 34.9263 45 22.5 45C10.0736 45 0 34.9263 0 22.5C0 10.0736 10.0736 0 22.5 0ZM22.5 11.25C21.6457 11.25 20.9396 11.8848 20.8278 12.7085L20.8125 12.9375V20.8125H12.9375C12.0055 20.8125 11.25 21.568 11.25 22.5C11.25 23.3543 11.8848 24.0604 12.7085 24.1722L12.9375 24.1875H20.8125V32.0625C20.8125 32.9945 21.568 33.75 22.5 33.75C23.3543 33.75 24.0604 33.1151 24.1722 32.2916L24.1875 32.0625V24.1875H32.0625C32.9945 24.1875 33.75 23.432 33.75 22.5C33.75 21.6457 33.1151 20.9396 32.2916 20.8278L32.0625 20.8125H24.1875V12.9375C24.1875 12.0055 23.432 11.25 22.5 11.25Z" fill="#2AC1C1"/>
</svg>
