<svg width="12" height="11" viewBox="0 0 12 11" fill="none" xmlns="http://www.w3.org/2000/svg">
<path d="M1.95 8.68431C0.873042 8.68431 0 7.84187 0 6.80271V1.8816C0 0.842418 0.873042 0 1.95 0H10.05C11.1269 0 12 0.842418 12 1.8816V6.80271C12 7.84187 11.1269 8.68431 10.05 8.68431H6.6075L3.59921 10.8558C3.26751 11.0952 2.7975 11.0298 2.54941 10.7097C2.45242 10.5845 2.4 10.4325 2.4 10.2764L2.39953 8.68431H1.95ZM6.3081 7.81588H10.05C10.6299 7.81588 11.1 7.36227 11.1 6.80271V1.8816C11.1 1.32204 10.6299 0.868431 10.05 0.868431H1.95C1.3701 0.868431 0.9 1.32204 0.9 1.8816V6.80271C0.9 7.36227 1.3701 7.81588 1.95 7.81588H3.29927L3.2994 8.24998L3.29992 9.9873L6.3081 7.81588Z" fill="#868686"/>
</svg>
